<svg width="200" height="200" viewBox="0 0 200 200" fill="none" xmlns="http://www.w3.org/2000/svg">
<rect width="200" height="200" fill="#FDFDFD"/>

<path d="M100 20L180 80V120L100 180L20 120V80L100 20Z" fill="#E6AF2E"/>

<circle cx="80" cy="90" r="8" fill="#D4991A"/>
<circle cx="120" cy="90" r="8" fill="#D4991A"/>
<path d="M100 60 L105 70 L95 70 Z" fill="#D4991A"/> <rect x="70" y="110" width="10" height="10" rx="2" fill="#D4991A"/>
<rect x="120" y="110" width="10" height="10" rx="2" fill="#D4991A"/>


<path d="M100 180 C110 170 120 170 130 180 C140 190 150 190 160 180 C170 170 180 170 180 180 V200 H20 V180 C20 170 30 170 40 180 C50 190 60 190 70 180 C80 170 90 170 100 180 Z" fill="#FFC300"/>


<path d="M100 40 C70 40 50 60 50 100 C50 140 70 160 100 160 C130 160 150 140 150 100 C150 60 130 40 100 40 Z" stroke="#A0522D" stroke-width="4" stroke-dasharray="8 4"/>

<text x="100" y="105" font-family="Arial, sans-serif" font-size="30" font-weight="bold" fill="#A0522D" text-anchor="middle" dominant-baseline="middle">AREM</text>

</svg>
